<svg aria-hidden="true" style="position: absolute; width: 0; height: 0; overflow: hidden;" version="1.1" xmlns="http://www.w3.org/2000/svg" xmlns:xlink="http://www.w3.org/1999/xlink">
  <defs>
    <symbol id="icon-user" viewBox="0 0 32 32">
      <path fill="#fbfbfb" style="fill: var(--color1, #fbfbfb)" d="M16 5.333c1.415 0 2.771 0.562 3.771 1.562s1.562 2.357 1.562 3.771-0.562 2.771-1.562 3.771c-1 1-2.357 1.562-3.771 1.562s-2.771-0.562-3.771-1.562c-1-1-1.562-2.357-1.562-3.771s0.562-2.771 1.562-3.771c1-1 2.357-1.562 3.771-1.562zM16 18.667c5.893 0 10.667 2.387 10.667 5.333v2.667h-21.333v-2.667c0-2.947 4.773-5.333 10.667-5.333z"></path>
    </symbol>
    <symbol id="icon-clock" viewBox="0 0 32 32">
      <path stroke-linejoin="round" stroke-linecap="round" stroke-miterlimit="4" stroke-width="2.4" d="M16 29.333c7.364 0 13.333-5.969 13.333-13.333s-5.97-13.333-13.333-13.333c-7.364 0-13.333 5.97-13.333 13.333s5.97 13.333 13.333 13.333z"></path>
      <path stroke-linejoin="round" stroke-linecap="round" stroke-miterlimit="4" stroke-width="2.4" d="M16 8v8l5.333 2.667"></path>
    </symbol>
    <symbol id="icon-up" viewBox="0 0 55 32">
      <path fill="none" stroke="#fbfbfb" style="stroke: var(--color1, #fbfbfb)" stroke-linejoin="round" stroke-linecap="round" stroke-miterlimit="4" stroke-width="9.1429" d="M4.571 27.429l22.857-22.857 22.857 22.857"></path>
    </symbol>
    <symbol id="icon-down" viewBox="0 0 55 32">
      <path fill="none" stroke="#fbfbfb" style="stroke: var(--color1, #fbfbfb)" stroke-linejoin="round" stroke-linecap="round" stroke-miterlimit="4" stroke-width="9.1429" d="M4.571 4.571l22.857 22.857 22.857-22.857"></path>
    </symbol>
    <symbol id="icon-eye-off" viewBox="0 0 32 32">
      <path stroke-linejoin="round" stroke-linecap="round" stroke-miterlimit="4" stroke-width="3.2" d="M23.92 23.92c-2.279 1.737-5.054 2.7-7.92 2.747-9.333 0-14.667-10.667-14.667-10.667 1.659-3.091 3.959-5.791 6.747-7.92M13.2 5.653c0.918-0.215 1.857-0.322 2.8-0.32 9.333 0 14.667 10.667 14.667 10.667-0.809 1.514-1.775 2.94-2.88 4.253M18.827 18.827c-0.366 0.393-0.808 0.708-1.298 0.927s-1.020 0.336-1.557 0.346c-0.537 0.009-1.071-0.089-1.569-0.291s-0.95-0.501-1.33-0.88c-0.38-0.38-0.679-0.832-0.88-1.33s-0.3-1.032-0.29-1.569c0.009-0.537 0.127-1.067 0.346-1.558s0.534-0.932 0.927-1.298"></path>
      <path stroke-linejoin="round" stroke-linecap="round" stroke-miterlimit="4" stroke-width="3.2" d="M1.333 1.333l29.333 29.333"></path>
    </symbol>
    <symbol id="icon-eye" viewBox="0 0 32 32">
      <path stroke-linejoin="round" stroke-linecap="round" stroke-miterlimit="4" stroke-width="3.2" d="M1.333 16c0 0 5.333-10.667 14.667-10.667s14.667 10.667 14.667 10.667-5.333 10.667-14.667 10.667c-9.333 0-14.667-10.667-14.667-10.667z"></path>
      <path stroke-linejoin="round" stroke-linecap="round" stroke-miterlimit="4" stroke-width="3.2" d="M16 20c2.209 0 4-1.791 4-4s-1.791-4-4-4c-2.209 0-4 1.791-4 4s1.791 4 4 4z"></path>
    </symbol>
    <symbol id="icon-heart-green" viewBox="0 0 36 32">
      <path fill="#54be96" style="fill: var(--color2, #54be96); stroke: var(--color2, #54be96)" stroke="#54be96" stroke-linejoin="round" stroke-linecap="round" stroke-miterlimit="4" stroke-width="2.9091" d="M31.853 3.994c-0.805-0.805-1.76-1.444-2.812-1.88s-2.179-0.66-3.318-0.66-2.266 0.224-3.318 0.66c-1.052 0.436-2.007 1.075-2.812 1.88l-1.67 1.67-1.67-1.67c-1.626-1.626-3.831-2.539-6.13-2.539s-4.504 0.913-6.13 2.539c-1.626 1.626-2.539 3.831-2.539 6.13s0.913 4.504 2.539 6.13l13.93 13.93 13.93-13.93c0.805-0.805 1.444-1.76 1.88-2.812s0.66-2.179 0.66-3.318c0-1.138-0.224-2.266-0.66-3.318s-1.074-2.007-1.88-2.812z"></path>
    </symbol>
    <symbol id="icon-heart" viewBox="0 0 36 32">
      <path stroke-linejoin="round" stroke-linecap="round" stroke-miterlimit="4" stroke-width="2.9091" d="M31.853 3.994c-0.805-0.805-1.76-1.444-2.812-1.88s-2.179-0.66-3.318-0.66-2.266 0.224-3.318 0.66c-1.052 0.436-2.007 1.075-2.812 1.88l-1.67 1.67-1.67-1.67c-1.626-1.626-3.831-2.539-6.13-2.539s-4.504 0.913-6.13 2.539c-1.626 1.626-2.539 3.831-2.539 6.13s0.913 4.504 2.539 6.13l13.93 13.93 13.93-13.93c0.805-0.805 1.444-1.76 1.88-2.812s0.66-2.179 0.66-3.318c0-1.138-0.224-2.266-0.66-3.318s-1.074-2.007-1.88-2.812z"></path>
    </symbol>
    <symbol id="icon-psychologistsservices" viewBox="0 0 346 32">
      <path fill="#54be96" style="fill: var(--color2, #54be96)" d="M0 31.148v-24h4.773v2.932h0.216c0.212-0.47 0.519-0.947 0.92-1.432 0.409-0.492 0.939-0.902 1.591-1.227 0.659-0.333 1.477-0.5 2.455-0.5 1.273 0 2.447 0.333 3.523 1 1.076 0.659 1.936 1.655 2.579 2.989 0.644 1.326 0.966 2.989 0.966 4.989 0 1.947-0.314 3.591-0.943 4.932-0.621 1.333-1.47 2.345-2.545 3.034-1.068 0.682-2.265 1.023-3.591 1.023-0.939 0-1.739-0.155-2.398-0.466-0.652-0.311-1.186-0.701-1.602-1.171-0.417-0.477-0.735-0.958-0.955-1.443h-0.148v9.341h-4.841zM4.739 15.875c0 1.038 0.144 1.943 0.432 2.716s0.705 1.375 1.25 1.807c0.545 0.424 1.208 0.636 1.989 0.636 0.788 0 1.455-0.216 2-0.648 0.545-0.439 0.958-1.045 1.239-1.818 0.288-0.78 0.432-1.678 0.432-2.693 0-1.008-0.14-1.894-0.42-2.659s-0.693-1.364-1.239-1.795c-0.545-0.432-1.216-0.648-2.011-0.648-0.788 0-1.455 0.208-2 0.625-0.538 0.417-0.951 1.008-1.239 1.773s-0.432 1.667-0.432 2.705zM34.133 12.125l-4.432 0.273c-0.076-0.379-0.239-0.72-0.489-1.023-0.25-0.311-0.58-0.557-0.989-0.739-0.402-0.189-0.883-0.284-1.443-0.284-0.75 0-1.383 0.159-1.898 0.477-0.515 0.311-0.773 0.727-0.773 1.25 0 0.417 0.167 0.769 0.5 1.057s0.905 0.519 1.716 0.693l3.159 0.636c1.697 0.348 2.962 0.909 3.796 1.682s1.25 1.788 1.25 3.045c0 1.144-0.337 2.148-1.011 3.011-0.667 0.864-1.583 1.538-2.75 2.023-1.159 0.477-2.496 0.716-4.011 0.716-2.311 0-4.152-0.481-5.523-1.443-1.364-0.97-2.163-2.288-2.398-3.955l4.761-0.25c0.144 0.704 0.492 1.242 1.045 1.614 0.553 0.364 1.261 0.545 2.125 0.545 0.848 0 1.53-0.163 2.045-0.489 0.523-0.333 0.788-0.761 0.796-1.284-0.008-0.439-0.193-0.799-0.557-1.080-0.364-0.288-0.924-0.508-1.682-0.659l-3.023-0.602c-1.704-0.341-2.973-0.932-3.807-1.773-0.826-0.841-1.239-1.913-1.239-3.216 0-1.121 0.303-2.087 0.909-2.898 0.614-0.811 1.473-1.436 2.58-1.875 1.114-0.439 2.417-0.659 3.909-0.659 2.204 0 3.939 0.466 5.204 1.398 1.273 0.932 2.015 2.201 2.227 3.807zM39.928 31.148c-0.614 0-1.189-0.049-1.727-0.148-0.53-0.091-0.97-0.208-1.318-0.352l1.091-3.614c0.568 0.174 1.080 0.269 1.534 0.284 0.462 0.015 0.86-0.091 1.193-0.318 0.341-0.227 0.617-0.614 0.829-1.159l0.284-0.739-6.261-17.954h5.091l3.614 12.818h0.182l3.648-12.818h5.125l-6.784 19.341c-0.326 0.939-0.769 1.758-1.329 2.455-0.553 0.704-1.254 1.246-2.102 1.625-0.848 0.386-1.871 0.58-3.068 0.58zM62.373 24.943c-1.788 0-3.326-0.379-4.614-1.136-1.28-0.765-2.265-1.826-2.955-3.182-0.682-1.356-1.023-2.917-1.023-4.682 0-1.788 0.345-3.356 1.034-4.705 0.697-1.356 1.686-2.413 2.966-3.17 1.28-0.765 2.803-1.148 4.568-1.148 1.523 0 2.856 0.277 4 0.83s2.049 1.33 2.716 2.33c0.667 1 1.034 2.174 1.102 3.523h-4.568c-0.129-0.871-0.47-1.572-1.023-2.102-0.545-0.538-1.261-0.807-2.148-0.807-0.75 0-1.405 0.205-1.966 0.614-0.553 0.402-0.985 0.989-1.295 1.761s-0.466 1.708-0.466 2.807c0 1.114 0.152 2.061 0.455 2.841 0.311 0.78 0.746 1.375 1.307 1.784s1.216 0.614 1.966 0.614c0.553 0 1.049-0.114 1.489-0.341 0.447-0.227 0.814-0.557 1.102-0.989 0.296-0.44 0.489-0.966 0.58-1.58h4.568c-0.076 1.333-0.44 2.508-1.091 3.523-0.644 1.008-1.534 1.796-2.67 2.364s-2.481 0.852-4.034 0.852zM77.469 14.511v10.091h-4.841v-23.273h4.704v8.898h0.205c0.394-1.030 1.030-1.837 1.909-2.42 0.879-0.591 1.981-0.886 3.307-0.886 1.212 0 2.269 0.265 3.171 0.795 0.909 0.523 1.614 1.277 2.114 2.261 0.508 0.977 0.758 2.148 0.75 3.511v11.114h-4.841v-10.25c0.008-1.076-0.265-1.913-0.818-2.511-0.545-0.598-1.311-0.898-2.296-0.898-0.659 0-1.242 0.14-1.75 0.42-0.5 0.28-0.894 0.689-1.182 1.227-0.28 0.53-0.424 1.17-0.432 1.92zM99.843 24.943c-1.765 0-3.292-0.375-4.58-1.125-1.28-0.758-2.269-1.811-2.966-3.159-0.697-1.356-1.045-2.928-1.045-4.716 0-1.803 0.348-3.379 1.045-4.727 0.697-1.356 1.686-2.409 2.966-3.159 1.288-0.758 2.814-1.136 4.58-1.136s3.288 0.379 4.568 1.136c1.288 0.75 2.28 1.803 2.977 3.159 0.697 1.348 1.045 2.924 1.045 4.727 0 1.788-0.348 3.36-1.045 4.716-0.697 1.348-1.689 2.402-2.977 3.159-1.28 0.75-2.803 1.125-4.568 1.125zM99.865 21.193c0.803 0 1.474-0.227 2.012-0.682 0.538-0.462 0.943-1.091 1.216-1.886 0.28-0.795 0.42-1.701 0.42-2.716s-0.14-1.92-0.42-2.716c-0.273-0.795-0.678-1.424-1.216-1.886s-1.208-0.693-2.012-0.693c-0.811 0-1.492 0.231-2.045 0.693-0.545 0.462-0.958 1.091-1.239 1.886-0.273 0.795-0.409 1.701-0.409 2.716s0.136 1.921 0.409 2.716c0.28 0.796 0.693 1.424 1.239 1.886 0.553 0.455 1.235 0.682 2.045 0.682zM115.782 1.33v23.273h-4.841v-23.273h4.841zM126.907 24.943c-1.765 0-3.292-0.375-4.58-1.125-1.28-0.758-2.269-1.811-2.966-3.159-0.697-1.356-1.045-2.928-1.045-4.716 0-1.803 0.348-3.379 1.045-4.727 0.697-1.356 1.686-2.409 2.966-3.159 1.288-0.758 2.814-1.136 4.58-1.136s3.288 0.379 4.568 1.136c1.288 0.75 2.28 1.803 2.977 3.159 0.697 1.348 1.045 2.924 1.045 4.727 0 1.788-0.348 3.36-1.045 4.716-0.697 1.348-1.689 2.402-2.977 3.159-1.28 0.75-2.803 1.125-4.568 1.125zM126.929 21.193c0.803 0 1.473-0.227 2.011-0.682 0.538-0.462 0.943-1.091 1.216-1.886 0.28-0.795 0.42-1.701 0.42-2.716s-0.14-1.92-0.42-2.716c-0.273-0.795-0.678-1.424-1.216-1.886s-1.208-0.693-2.011-0.693c-0.811 0-1.492 0.231-2.045 0.693-0.545 0.462-0.958 1.091-1.239 1.886-0.273 0.795-0.409 1.701-0.409 2.716s0.136 1.921 0.409 2.716c0.28 0.796 0.693 1.424 1.239 1.886 0.553 0.455 1.235 0.682 2.045 0.682zM145.869 31.511c-1.568 0-2.913-0.216-4.034-0.648-1.114-0.424-2-1.004-2.659-1.739s-1.087-1.561-1.284-2.477l4.477-0.602c0.136 0.348 0.352 0.674 0.648 0.977s0.686 0.545 1.171 0.727c0.492 0.189 1.091 0.284 1.795 0.284 1.053 0 1.92-0.258 2.602-0.773 0.689-0.508 1.034-1.36 1.034-2.557v-3.193h-0.205c-0.212 0.485-0.53 0.943-0.955 1.375s-0.97 0.784-1.636 1.057c-0.667 0.273-1.462 0.409-2.386 0.409-1.311 0-2.504-0.303-3.58-0.909-1.068-0.614-1.92-1.549-2.557-2.807-0.629-1.265-0.943-2.864-0.943-4.795 0-1.977 0.322-3.629 0.966-4.955s1.5-2.318 2.568-2.977c1.076-0.659 2.254-0.989 3.534-0.989 0.977 0 1.796 0.167 2.455 0.5 0.659 0.326 1.189 0.735 1.591 1.227 0.409 0.485 0.724 0.962 0.943 1.432h0.182v-2.932h4.807v17.625c0 1.485-0.364 2.727-1.091 3.727s-1.735 1.75-3.023 2.25c-1.28 0.508-2.754 0.761-4.42 0.761zM145.971 20.716c0.78 0 1.44-0.193 1.977-0.58 0.545-0.394 0.962-0.955 1.25-1.682 0.295-0.735 0.443-1.614 0.443-2.636s-0.144-1.909-0.432-2.659c-0.288-0.758-0.705-1.345-1.25-1.761s-1.208-0.625-1.989-0.625c-0.795 0-1.466 0.216-2.011 0.648-0.545 0.424-0.958 1.015-1.239 1.773s-0.42 1.633-0.42 2.625c0 1.008 0.14 1.879 0.42 2.614 0.288 0.727 0.701 1.292 1.239 1.693 0.545 0.394 1.216 0.591 2.011 0.591zM157.615 24.602v-17.454h4.841v17.454h-4.841zM160.046 4.898c-0.719 0-1.336-0.239-1.852-0.716-0.508-0.485-0.761-1.064-0.761-1.739 0-0.667 0.254-1.239 0.761-1.716 0.515-0.485 1.133-0.727 1.852-0.727s1.334 0.242 1.842 0.727c0.515 0.477 0.773 1.049 0.773 1.716 0 0.674-0.258 1.254-0.773 1.739-0.507 0.477-1.122 0.716-1.842 0.716zM180.216 12.125l-4.43 0.273c-0.077-0.379-0.24-0.72-0.49-1.023-0.25-0.311-0.579-0.557-0.989-0.739-0.402-0.189-0.882-0.284-1.443-0.284-0.75 0-1.382 0.159-1.898 0.477-0.515 0.311-0.773 0.727-0.773 1.25 0 0.417 0.166 0.769 0.501 1.057 0.333 0.288 0.906 0.519 1.715 0.693l3.16 0.636c1.696 0.348 2.962 0.909 3.795 1.682s1.25 1.788 1.25 3.045c0 1.144-0.338 2.148-1.011 3.011-0.667 0.864-1.584 1.538-2.75 2.023-1.158 0.477-2.496 0.716-4.011 0.716-2.31 0-4.152-0.481-5.523-1.443-1.363-0.97-2.162-2.288-2.397-3.955l4.762-0.25c0.144 0.704 0.491 1.242 1.045 1.614 0.554 0.364 1.261 0.545 2.125 0.545 0.848 0 1.531-0.163 2.046-0.489 0.522-0.333 0.787-0.761 0.795-1.284-0.008-0.439-0.194-0.799-0.557-1.080-0.365-0.288-0.925-0.508-1.682-0.659l-3.024-0.602c-1.704-0.341-2.973-0.932-3.806-1.773-0.826-0.841-1.238-1.913-1.238-3.216 0-1.121 0.302-2.087 0.909-2.898 0.614-0.811 1.474-1.436 2.579-1.875 1.114-0.439 2.418-0.659 3.91-0.659 2.203 0 3.939 0.466 5.203 1.398 1.274 0.932 2.016 2.201 2.227 3.807zM192.307 7.148v3.636h-10.512v-3.636h10.512zM184.182 2.966h4.84v16.273c0 0.447 0.069 0.796 0.205 1.046 0.136 0.242 0.326 0.413 0.568 0.511 0.25 0.098 0.538 0.148 0.864 0.148 0.227 0 0.454-0.019 0.682-0.057 0.227-0.045 0.402-0.080 0.523-0.102l0.762 3.602c-0.243 0.076-0.584 0.163-1.024 0.261-0.438 0.106-0.973 0.171-1.602 0.193-1.166 0.045-2.189-0.11-3.069-0.466-0.87-0.356-1.549-0.909-2.034-1.659s-0.723-1.697-0.715-2.841v-16.909zM209.125 12.125l-4.432 0.273c-0.077-0.379-0.238-0.72-0.49-1.023-0.25-0.311-0.579-0.557-0.989-0.739-0.402-0.189-0.882-0.284-1.443-0.284-0.749 0-1.382 0.159-1.898 0.477-0.515 0.311-0.773 0.727-0.773 1.25 0 0.417 0.168 0.769 0.501 1.057s0.906 0.519 1.715 0.693l3.16 0.636c1.696 0.348 2.962 0.909 3.795 1.682s1.25 1.788 1.25 3.045c0 1.144-0.338 2.148-1.011 3.011-0.667 0.864-1.584 1.538-2.75 2.023-1.158 0.477-2.496 0.716-4.011 0.716-2.31 0-4.15-0.481-5.522-1.443-1.365-0.97-2.163-2.288-2.398-3.955l4.762-0.25c0.144 0.704 0.493 1.242 1.045 1.614 0.554 0.364 1.262 0.545 2.125 0.545 0.85 0 1.531-0.163 2.046-0.489 0.522-0.333 0.787-0.761 0.795-1.284-0.008-0.439-0.194-0.799-0.557-1.080-0.363-0.288-0.925-0.508-1.682-0.659l-3.022-0.602c-1.706-0.341-2.974-0.932-3.808-1.773-0.826-0.841-1.238-1.913-1.238-3.216 0-1.121 0.304-2.087 0.909-2.898 0.614-0.811 1.474-1.436 2.581-1.875 1.114-0.439 2.416-0.659 3.909-0.659 2.205 0 3.939 0.466 5.205 1.398 1.272 0.932 2.014 2.201 2.227 3.807zM214.522 24.818c-0.622 0-1.155-0.22-1.603-0.659-0.446-0.447-0.67-0.985-0.67-1.614 0-0.621 0.224-1.152 0.67-1.591 0.448-0.447 0.981-0.67 1.603-0.67 0.621 0 1.155 0.223 1.602 0.67 0.446 0.439 0.67 0.97 0.67 1.591 0 0.417-0.106 0.799-0.318 1.148-0.205 0.341-0.477 0.614-0.818 0.818s-0.72 0.307-1.136 0.307z"></path>
      <path fill="#191a15" style="fill: var(--color3, #191a15)" d="M234.33 11.761l-3.75 0.409c-0.106-0.379-0.291-0.735-0.557-1.068-0.258-0.333-0.605-0.602-1.045-0.807s-0.978-0.307-1.613-0.307c-0.858 0-1.576 0.186-2.16 0.557-0.576 0.371-0.859 0.852-0.853 1.443-0.006 0.508 0.179 0.92 0.557 1.239 0.387 0.318 1.024 0.58 1.91 0.784l2.976 0.636c1.653 0.356 2.88 0.92 3.683 1.693 0.81 0.773 1.219 1.784 1.227 3.034-0.008 1.098-0.33 2.068-0.966 2.909-0.629 0.833-1.504 1.485-2.626 1.954-1.12 0.47-2.408 0.705-3.864 0.705-2.136 0-3.856-0.447-5.158-1.341-1.302-0.901-2.080-2.155-2.33-3.761l4.011-0.386c0.182 0.788 0.568 1.383 1.16 1.784 0.59 0.402 1.36 0.602 2.306 0.602 0.978 0 1.762-0.201 2.354-0.602 0.598-0.401 0.898-0.898 0.898-1.489 0-0.5-0.194-0.913-0.581-1.239-0.378-0.326-0.97-0.576-1.773-0.75l-2.976-0.625c-1.675-0.348-2.914-0.936-3.717-1.761-0.803-0.833-1.2-1.886-1.194-3.159-0.006-1.076 0.285-2.008 0.875-2.795 0.598-0.795 1.429-1.409 2.49-1.841 1.067-0.439 2.299-0.659 3.693-0.659 2.045 0 3.656 0.436 4.829 1.307 1.182 0.871 1.914 2.049 2.194 3.534zM245.184 24.943c-1.75 0-3.261-0.364-4.534-1.091-1.264-0.735-2.238-1.773-2.92-3.114-0.682-1.348-1.022-2.936-1.022-4.761 0-1.795 0.341-3.371 1.022-4.727 0.69-1.364 1.651-2.424 2.886-3.182 1.235-0.765 2.686-1.148 4.352-1.148 1.077 0 2.091 0.174 3.046 0.523 0.962 0.341 1.81 0.871 2.546 1.591 0.742 0.72 1.325 1.636 1.749 2.75 0.424 1.106 0.637 2.424 0.637 3.955v1.261h-14.307v-2.773h10.365c-0.008-0.788-0.179-1.489-0.512-2.102-0.333-0.621-0.8-1.11-1.398-1.466-0.59-0.356-1.28-0.534-2.067-0.534-0.842 0-1.579 0.205-2.216 0.614-0.637 0.402-1.133 0.932-1.49 1.591-0.347 0.652-0.526 1.367-0.533 2.148v2.421c0 1.015 0.186 1.886 0.557 2.614 0.371 0.72 0.89 1.273 1.557 1.659 0.666 0.379 1.446 0.568 2.341 0.568 0.598 0 1.139-0.083 1.624-0.25 0.485-0.174 0.906-0.428 1.262-0.761 0.355-0.333 0.624-0.746 0.806-1.239l3.84 0.432c-0.242 1.015-0.704 1.901-1.386 2.659-0.674 0.75-1.538 1.333-2.59 1.75-1.053 0.409-2.258 0.614-3.614 0.614zM255.786 24.602v-17.454h3.989v2.909h0.182c0.317-1.008 0.862-1.784 1.635-2.33 0.781-0.553 1.67-0.83 2.67-0.83 0.227 0 0.482 0.011 0.762 0.034 0.288 0.015 0.526 0.042 0.717 0.080v3.784c-0.174-0.061-0.451-0.114-0.83-0.159-0.371-0.053-0.731-0.080-1.078-0.080-0.75 0-1.426 0.163-2.024 0.489-0.59 0.318-1.056 0.761-1.397 1.33s-0.512 1.223-0.512 1.966v10.261h-4.114zM283.955 7.148l-6.216 17.454h-4.546l-6.216-17.454h4.387l4.011 12.966h0.182l4.022-12.966h4.374zM286.162 24.602v-17.454h4.114v17.454h-4.114zM288.23 4.67c-0.651 0-1.213-0.216-1.682-0.648-0.47-0.439-0.706-0.966-0.706-1.58 0-0.621 0.235-1.148 0.706-1.58 0.469-0.439 1.030-0.659 1.682-0.659 0.659 0 1.219 0.22 1.682 0.659 0.47 0.432 0.704 0.958 0.704 1.58 0 0.614-0.234 1.14-0.704 1.58-0.462 0.432-1.022 0.648-1.682 0.648zM301.48 24.943c-1.742 0-3.24-0.383-4.49-1.148-1.242-0.765-2.2-1.822-2.875-3.171-0.666-1.356-1-2.917-1-4.682 0-1.773 0.341-3.337 1.024-4.693 0.682-1.364 1.643-2.424 2.886-3.182 1.25-0.765 2.726-1.148 4.43-1.148 1.418 0 2.67 0.261 3.762 0.784 1.099 0.515 1.974 1.246 2.626 2.193 0.651 0.939 1.022 2.038 1.114 3.295h-3.931c-0.16-0.841-0.539-1.542-1.138-2.102-0.59-0.568-1.382-0.852-2.374-0.852-0.842 0-1.579 0.227-2.216 0.682-0.637 0.447-1.133 1.091-1.488 1.932-0.349 0.841-0.523 1.848-0.523 3.023 0 1.189 0.174 2.212 0.523 3.068 0.347 0.848 0.837 1.504 1.466 1.966 0.635 0.455 1.382 0.682 2.238 0.682 0.606 0 1.147-0.114 1.626-0.341 0.485-0.235 0.89-0.572 1.214-1.011 0.326-0.439 0.55-0.973 0.672-1.602h3.931c-0.099 1.235-0.462 2.33-1.091 3.284-0.629 0.947-1.485 1.689-2.568 2.227-1.083 0.53-2.357 0.796-3.818 0.796zM319.422 24.943c-1.75 0-3.262-0.364-4.534-1.091-1.266-0.735-2.238-1.773-2.92-3.114-0.683-1.348-1.024-2.936-1.024-4.761 0-1.795 0.341-3.371 1.024-4.727 0.688-1.364 1.651-2.424 2.885-3.182 1.235-0.765 2.686-1.148 4.354-1.148 1.075 0 2.090 0.174 3.045 0.523 0.962 0.341 1.811 0.871 2.546 1.591 0.742 0.72 1.326 1.636 1.75 2.75 0.424 1.106 0.635 2.424 0.635 3.955v1.261h-14.306v-2.773h10.363c-0.008-0.788-0.178-1.489-0.512-2.102-0.333-0.621-0.798-1.11-1.397-1.466-0.592-0.356-1.28-0.534-2.069-0.534-0.84 0-1.579 0.205-2.216 0.614-0.635 0.402-1.133 0.932-1.488 1.591-0.349 0.652-0.526 1.367-0.534 2.148v2.421c0 1.015 0.186 1.886 0.557 2.614 0.371 0.72 0.89 1.273 1.557 1.659 0.667 0.379 1.446 0.568 2.341 0.568 0.598 0 1.141-0.083 1.626-0.25 0.485-0.174 0.906-0.428 1.261-0.761 0.357-0.333 0.626-0.746 0.806-1.239l3.842 0.432c-0.243 1.015-0.704 1.901-1.387 2.659-0.674 0.75-1.538 1.333-2.59 1.75-1.053 0.409-2.258 0.614-3.613 0.614zM343.819 11.761l-3.75 0.409c-0.106-0.379-0.291-0.735-0.557-1.068-0.258-0.333-0.606-0.602-1.045-0.807-0.44-0.205-0.978-0.307-1.614-0.307-0.856 0-1.576 0.186-2.158 0.557-0.576 0.371-0.861 0.852-0.853 1.443-0.008 0.508 0.178 0.92 0.557 1.239 0.386 0.318 1.022 0.58 1.909 0.784l2.978 0.636c1.651 0.356 2.878 0.92 3.682 1.693 0.811 0.773 1.219 1.784 1.227 3.034-0.008 1.098-0.33 2.068-0.966 2.909-0.629 0.833-1.502 1.485-2.624 1.954s-2.41 0.705-3.864 0.705c-2.136 0-3.856-0.447-5.158-1.341-1.304-0.901-2.080-2.155-2.33-3.761l4.011-0.386c0.181 0.788 0.568 1.383 1.158 1.784s1.36 0.602 2.307 0.602c0.978 0 1.762-0.201 2.352-0.602 0.598-0.401 0.898-0.898 0.898-1.489 0-0.5-0.194-0.913-0.579-1.239-0.379-0.326-0.97-0.576-1.773-0.75l-2.978-0.625c-1.674-0.348-2.912-0.936-3.715-1.761-0.803-0.833-1.202-1.886-1.194-3.159-0.008-1.076 0.285-2.008 0.875-2.795 0.598-0.795 1.427-1.409 2.488-1.841 1.069-0.439 2.299-0.659 3.693-0.659 2.046 0 3.656 0.436 4.83 1.307 1.182 0.871 1.914 2.049 2.194 3.534z"></path>
    </symbol>
    <symbol id="icon-Star" viewBox="0 0 34 32">
      <path fill="#ffc531" style="fill: var(--color4, #ffc531); stroke: var(--color4, #ffc531)" stroke="#ffc531" stroke-linejoin="miter" stroke-linecap="butt" stroke-miterlimit="4" stroke-width="2.7429" d="M20.319 9.43c0.364 0.689 1.027 1.171 1.795 1.304l8.685 1.5-6.143 6.326c-0.543 0.559-0.796 1.338-0.685 2.109l1.254 8.726-7.911-3.888-0.268-0.114c-0.544-0.193-1.139-0.193-1.683 0l-0.268 0.114-7.913 3.888 1.257-8.726c0.111-0.771-0.142-1.55-0.685-2.109l-6.145-6.326 8.688-1.5c0.768-0.133 1.431-0.614 1.795-1.304l4.114-7.797 4.114 7.797z"></path>
    </symbol>
    <symbol id="icon-top-right" viewBox="0 0 32 32">
      <path stroke-linejoin="round" stroke-linecap="round" stroke-miterlimit="4" stroke-width="1.0667" d="M0.533 30.933l30.388-30.4M30.922 16.899l-0-16.366h-16.366"></path>
    </symbol>
    <symbol id="icon-Close" viewBox="0 0 32 32">
      <path stroke-linejoin="round" stroke-linecap="round" stroke-miterlimit="4" stroke-width="4" d="M30 30l-28-28M30 2l-28 28"></path>
    </symbol>
  </defs>
</svg>